<svg width="301" height="301" viewBox="0 0 301 301" fill="none" xmlns="http://www.w3.org/2000/svg">
<g filter="url(#filter0_b_592_115)">
<path d="M7.89453 150.001C7.89453 71.5182 71.5172 7.89551 150 7.89551C228.482 7.89551 292.105 71.5182 292.105 150.001C292.105 228.483 228.482 292.106 150 292.106C71.5172 292.106 7.89453 228.483 7.89453 150.001Z" fill="white"/>
</g>
<g filter="url(#filter1_b_592_115)">
<path fill-rule="evenodd" clip-rule="evenodd" d="M150 300C67.1573 300 0 232.843 0 150C0 67.1573 67.1573 0 150 0C232.843 0 300 67.1573 300 150C300 232.843 232.843 300 150 300ZM150 7.89474C71.5174 7.89474 7.89474 71.5174 7.89474 150C7.89474 228.483 71.5174 292.105 150 292.105C228.483 292.105 292.105 228.483 292.105 150C292.105 71.5174 228.483 7.89474 150 7.89474Z" fill="white"/>
</g>
<g filter="url(#filter2_d_592_115)">
<path d="M7.89453 150.001C7.89453 71.5182 71.5172 7.89551 150 7.89551C228.482 7.89551 292.105 71.5182 292.105 150.001C292.105 228.483 228.482 292.106 150 292.106C71.5172 292.106 7.89453 228.483 7.89453 150.001Z" fill="url(#paint0_linear_592_115)" shape-rendering="crispEdges"/>
</g>
<g filter="url(#filter3_i_592_115)">
<circle cx="150" cy="150" r="92" fill="#9EA1B7"/>
</g>
<defs>
<filter id="filter0_b_592_115" x="-12.1055" y="-12.1045" width="324.211" height="324.211" filterUnits="userSpaceOnUse" color-interpolation-filters="sRGB">
<feFlood flood-opacity="0" result="BackgroundImageFix"/>
<feGaussianBlur in="BackgroundImage" stdDeviation="10"/>
<feComposite in2="SourceAlpha" operator="in" result="effect1_backgroundBlur_592_115"/>
<feBlend mode="normal" in="SourceGraphic" in2="effect1_backgroundBlur_592_115" result="shape"/>
</filter>
<filter id="filter1_b_592_115" x="-20" y="-20" width="340" height="340" filterUnits="userSpaceOnUse" color-interpolation-filters="sRGB">
<feFlood flood-opacity="0" result="BackgroundImageFix"/>
<feGaussianBlur in="BackgroundImage" stdDeviation="10"/>
<feComposite in2="SourceAlpha" operator="in" result="effect1_backgroundBlur_592_115"/>
<feBlend mode="normal" in="SourceGraphic" in2="effect1_backgroundBlur_592_115" result="shape"/>
</filter>
<filter id="filter2_d_592_115" x="5.89453" y="5.89551" width="294.211" height="294.211" filterUnits="userSpaceOnUse" color-interpolation-filters="sRGB">
<feFlood flood-opacity="0" result="BackgroundImageFix"/>
<feColorMatrix in="SourceAlpha" type="matrix" values="0 0 0 0 0 0 0 0 0 0 0 0 0 0 0 0 0 0 127 0" result="hardAlpha"/>
<feOffset dx="3" dy="3"/>
<feGaussianBlur stdDeviation="2.5"/>
<feComposite in2="hardAlpha" operator="out"/>
<feColorMatrix type="matrix" values="0 0 0 0 0.0588235 0 0 0 0 0.160784 0 0 0 0 0.419608 0 0 0 0.2 0"/>
<feBlend mode="normal" in2="BackgroundImageFix" result="effect1_dropShadow_592_115"/>
<feBlend mode="normal" in="SourceGraphic" in2="effect1_dropShadow_592_115" result="shape"/>
</filter>
<filter id="filter3_i_592_115" x="58" y="58" width="184" height="188" filterUnits="userSpaceOnUse" color-interpolation-filters="sRGB">
<feFlood flood-opacity="0" result="BackgroundImageFix"/>
<feBlend mode="normal" in="SourceGraphic" in2="BackgroundImageFix" result="shape"/>
<feColorMatrix in="SourceAlpha" type="matrix" values="0 0 0 0 0 0 0 0 0 0 0 0 0 0 0 0 0 0 127 0" result="hardAlpha"/>
<feOffset dy="4"/>
<feGaussianBlur stdDeviation="2"/>
<feComposite in2="hardAlpha" operator="arithmetic" k2="-1" k3="1"/>
<feColorMatrix type="matrix" values="0 0 0 0 0 0 0 0 0 0 0 0 0 0 0 0 0 0 0.25 0"/>
<feBlend mode="normal" in2="shape" result="effect1_innerShadow_592_115"/>
</filter>
<linearGradient id="paint0_linear_592_115" x1="7.89453" y1="7.89551" x2="292.105" y2="292.106" gradientUnits="userSpaceOnUse">
<stop stop-color="#E8EBF2"/>
<stop offset="1" stop-color="#F2F3F7" stop-opacity="0"/>
</linearGradient>
</defs>
</svg>
