<svg width="145" height="145" viewBox="0 0 145 145" fill="none" xmlns="http://www.w3.org/2000/svg">
<g filter="url(#filter0_b_509_7526)">
<path d="M3.68359 69.9994C3.68359 33.3742 33.3742 3.68359 69.9994 3.68359C106.625 3.68359 136.315 33.3742 136.315 69.9994C136.315 106.625 106.625 136.315 69.9994 136.315C33.3742 136.315 3.68359 106.625 3.68359 69.9994Z" fill="white"/>
</g>
<g filter="url(#filter1_b_509_7526)">
<path fill-rule="evenodd" clip-rule="evenodd" d="M70 140C31.3401 140 0 108.66 0 70C0 31.3401 31.3401 0 70 0C108.66 0 140 31.3401 140 70C140 108.66 108.66 140 70 140ZM70 3.68421C33.3748 3.68421 3.68421 33.3748 3.68421 70C3.68421 106.625 33.3748 136.316 70 136.316C106.625 136.316 136.316 106.625 136.316 70C136.316 33.3748 106.625 3.68421 70 3.68421Z" fill="white"/>
</g>
<g filter="url(#filter2_d_509_7526)">
<path d="M3.68359 69.9994C3.68359 33.3742 33.3742 3.68359 69.9994 3.68359C106.625 3.68359 136.315 33.3742 136.315 69.9994C136.315 106.625 106.625 136.315 69.9994 136.315C33.3742 136.315 3.68359 106.625 3.68359 69.9994Z" fill="url(#paint0_linear_509_7526)" shape-rendering="crispEdges"/>
</g>
<path fill-rule="evenodd" clip-rule="evenodd" d="M70 99.4737C86.2779 99.4737 99.4737 86.2779 99.4737 70C99.4737 53.7221 86.2779 40.5263 70 40.5263C53.7221 40.5263 40.5263 53.7221 40.5263 70C40.5263 86.2779 53.7221 99.4737 70 99.4737ZM70 105C89.33 105 105 89.33 105 70C105 50.67 89.33 35 70 35C50.67 35 35 50.67 35 70C35 89.33 50.67 105 70 105Z" fill="#7777A8"/>
<path fill-rule="evenodd" clip-rule="evenodd" d="M95.8622 49.889L49.8096 94.0995L45.9824 90.1129L92.0351 45.9023L95.8622 49.889Z" fill="#7777A8"/>
<defs>
<filter id="filter0_b_509_7526" x="-16.3164" y="-16.3164" width="172.631" height="172.631" filterUnits="userSpaceOnUse" color-interpolation-filters="sRGB">
<feFlood flood-opacity="0" result="BackgroundImageFix"/>
<feGaussianBlur in="BackgroundImage" stdDeviation="10"/>
<feComposite in2="SourceAlpha" operator="in" result="effect1_backgroundBlur_509_7526"/>
<feBlend mode="normal" in="SourceGraphic" in2="effect1_backgroundBlur_509_7526" result="shape"/>
</filter>
<filter id="filter1_b_509_7526" x="-20" y="-20" width="180" height="180" filterUnits="userSpaceOnUse" color-interpolation-filters="sRGB">
<feFlood flood-opacity="0" result="BackgroundImageFix"/>
<feGaussianBlur in="BackgroundImage" stdDeviation="10"/>
<feComposite in2="SourceAlpha" operator="in" result="effect1_backgroundBlur_509_7526"/>
<feBlend mode="normal" in="SourceGraphic" in2="effect1_backgroundBlur_509_7526" result="shape"/>
</filter>
<filter id="filter2_d_509_7526" x="1.68359" y="1.68359" width="142.631" height="142.631" filterUnits="userSpaceOnUse" color-interpolation-filters="sRGB">
<feFlood flood-opacity="0" result="BackgroundImageFix"/>
<feColorMatrix in="SourceAlpha" type="matrix" values="0 0 0 0 0 0 0 0 0 0 0 0 0 0 0 0 0 0 127 0" result="hardAlpha"/>
<feOffset dx="3" dy="3"/>
<feGaussianBlur stdDeviation="2.5"/>
<feComposite in2="hardAlpha" operator="out"/>
<feColorMatrix type="matrix" values="0 0 0 0 0.0588235 0 0 0 0 0.160784 0 0 0 0 0.419608 0 0 0 0.2 0"/>
<feBlend mode="normal" in2="BackgroundImageFix" result="effect1_dropShadow_509_7526"/>
<feBlend mode="normal" in="SourceGraphic" in2="effect1_dropShadow_509_7526" result="shape"/>
</filter>
<linearGradient id="paint0_linear_509_7526" x1="3.68359" y1="3.68359" x2="136.315" y2="136.315" gradientUnits="userSpaceOnUse">
<stop stop-color="#E8EBF2"/>
<stop offset="1" stop-color="#F2F3F7" stop-opacity="0"/>
</linearGradient>
</defs>
</svg>
