<svg width="145" height="145" viewBox="0 0 145 145" fill="none" xmlns="http://www.w3.org/2000/svg">
<g filter="url(#filter0_b_509_7445)">
<path d="M3.68359 69.9994C3.68359 33.3742 33.3742 3.68359 69.9994 3.68359C106.625 3.68359 136.315 33.3742 136.315 69.9994C136.315 106.625 106.625 136.315 69.9994 136.315C33.3742 136.315 3.68359 106.625 3.68359 69.9994Z" fill="white"/>
</g>
<g filter="url(#filter1_b_509_7445)">
<path fill-rule="evenodd" clip-rule="evenodd" d="M70 140C31.3401 140 0 108.66 0 70C0 31.3401 31.3401 0 70 0C108.66 0 140 31.3401 140 70C140 108.66 108.66 140 70 140ZM70 3.68421C33.3748 3.68421 3.68421 33.3748 3.68421 70C3.68421 106.625 33.3748 136.316 70 136.316C106.625 136.316 136.316 106.625 136.316 70C136.316 33.3748 106.625 3.68421 70 3.68421Z" fill="white"/>
</g>
<g filter="url(#filter2_d_509_7445)">
<path d="M3.68359 69.9994C3.68359 33.3742 33.3742 3.68359 69.9994 3.68359C106.625 3.68359 136.315 33.3742 136.315 69.9994C136.315 106.625 106.625 136.315 69.9994 136.315C33.3742 136.315 3.68359 106.625 3.68359 69.9994Z" fill="url(#paint0_linear_509_7445)" shape-rendering="crispEdges"/>
</g>
<path fill-rule="evenodd" clip-rule="evenodd" d="M39.6055 51.5792C39.6055 44.9663 44.9663 39.6055 51.5792 39.6055H64.4739V45.1318H51.5792C48.0184 45.1318 45.1318 48.0184 45.1318 51.5792V88.4213C45.1318 91.982 48.0184 94.8686 51.5792 94.8686H64.4739V100.395H51.5792C44.9663 100.395 39.6055 95.0341 39.6055 88.4213V51.5792Z" fill="#7777A8"/>
<path fill-rule="evenodd" clip-rule="evenodd" d="M82 50.4617L99.5846 68.0463C100.664 69.1254 100.664 70.8749 99.5846 71.954L82 89.5386C80.9209 90.6177 79.1714 90.6177 78.0923 89.5386C77.0132 88.4595 77.0132 86.71 78.0923 85.6309L90.9599 72.7633H51.5781V67.237H90.9599L78.0923 54.3694C77.0132 53.2903 77.0132 51.5407 78.0923 50.4617C79.1714 49.3826 80.9209 49.3826 82 50.4617Z" fill="#7777A8"/>
<defs>
<filter id="filter0_b_509_7445" x="-16.3164" y="-16.3164" width="172.631" height="172.631" filterUnits="userSpaceOnUse" color-interpolation-filters="sRGB">
<feFlood flood-opacity="0" result="BackgroundImageFix"/>
<feGaussianBlur in="BackgroundImage" stdDeviation="10"/>
<feComposite in2="SourceAlpha" operator="in" result="effect1_backgroundBlur_509_7445"/>
<feBlend mode="normal" in="SourceGraphic" in2="effect1_backgroundBlur_509_7445" result="shape"/>
</filter>
<filter id="filter1_b_509_7445" x="-20" y="-20" width="180" height="180" filterUnits="userSpaceOnUse" color-interpolation-filters="sRGB">
<feFlood flood-opacity="0" result="BackgroundImageFix"/>
<feGaussianBlur in="BackgroundImage" stdDeviation="10"/>
<feComposite in2="SourceAlpha" operator="in" result="effect1_backgroundBlur_509_7445"/>
<feBlend mode="normal" in="SourceGraphic" in2="effect1_backgroundBlur_509_7445" result="shape"/>
</filter>
<filter id="filter2_d_509_7445" x="1.68359" y="1.68359" width="142.631" height="142.631" filterUnits="userSpaceOnUse" color-interpolation-filters="sRGB">
<feFlood flood-opacity="0" result="BackgroundImageFix"/>
<feColorMatrix in="SourceAlpha" type="matrix" values="0 0 0 0 0 0 0 0 0 0 0 0 0 0 0 0 0 0 127 0" result="hardAlpha"/>
<feOffset dx="3" dy="3"/>
<feGaussianBlur stdDeviation="2.5"/>
<feComposite in2="hardAlpha" operator="out"/>
<feColorMatrix type="matrix" values="0 0 0 0 0.0588235 0 0 0 0 0.160784 0 0 0 0 0.419608 0 0 0 0.2 0"/>
<feBlend mode="normal" in2="BackgroundImageFix" result="effect1_dropShadow_509_7445"/>
<feBlend mode="normal" in="SourceGraphic" in2="effect1_dropShadow_509_7445" result="shape"/>
</filter>
<linearGradient id="paint0_linear_509_7445" x1="3.68359" y1="3.68359" x2="136.315" y2="136.315" gradientUnits="userSpaceOnUse">
<stop stop-color="#E8EBF2"/>
<stop offset="1" stop-color="#F2F3F7" stop-opacity="0"/>
</linearGradient>
</defs>
</svg>
