<svg width="145" height="145" viewBox="0 0 145 145" fill="none" xmlns="http://www.w3.org/2000/svg">
<g filter="url(#filter0_b_509_7535)">
<path d="M3.68359 69.9994C3.68359 33.3742 33.3742 3.68359 69.9994 3.68359C106.625 3.68359 136.315 33.3742 136.315 69.9994C136.315 106.625 106.625 136.315 69.9994 136.315C33.3742 136.315 3.68359 106.625 3.68359 69.9994Z" fill="white"/>
</g>
<g filter="url(#filter1_b_509_7535)">
<path fill-rule="evenodd" clip-rule="evenodd" d="M70 140C31.3401 140 0 108.66 0 70C0 31.3401 31.3401 0 70 0C108.66 0 140 31.3401 140 70C140 108.66 108.66 140 70 140ZM70 3.68421C33.3748 3.68421 3.68421 33.3748 3.68421 70C3.68421 106.625 33.3748 136.316 70 136.316C106.625 136.316 136.316 106.625 136.316 70C136.316 33.3748 106.625 3.68421 70 3.68421Z" fill="white"/>
</g>
<g filter="url(#filter2_d_509_7535)">
<path d="M3.68359 69.9994C3.68359 33.3742 33.3742 3.68359 69.9994 3.68359C106.625 3.68359 136.315 33.3742 136.315 69.9994C136.315 106.625 106.625 136.315 69.9994 136.315C33.3742 136.315 3.68359 106.625 3.68359 69.9994Z" fill="url(#paint0_linear_509_7535)" shape-rendering="crispEdges"/>
</g>
<path d="M91.3996 77.7776C86.9285 77.7817 82.7442 79.9895 80.215 83.6806L61.2518 75.109C62.5983 71.8527 62.6037 68.1958 61.2668 64.9367L80.2041 56.3214C84.469 62.4951 92.925 64.0399 99.0922 59.7705C105.259 55.5012 106.803 47.0363 102.538 40.8626C98.2729 34.6889 89.8168 33.1441 83.6496 37.4135C79.9774 39.9562 77.7869 44.1436 77.7951 48.6125C77.8074 49.3822 77.8852 50.1491 78.0286 50.9051L57.8978 60.0631C52.4161 54.9229 43.8098 55.2031 38.675 60.6906C33.5402 66.178 33.8202 74.7932 39.3019 79.9334C44.5159 84.8234 52.6196 84.8412 57.8541 79.9744L78.0382 89.0969C77.8975 89.8529 77.8211 90.6184 77.8074 91.3867C77.806 98.9042 83.8913 104.999 91.401 105C98.9106 105.001 104.999 98.9097 105 91.3922C105.001 83.8747 98.9161 77.7803 91.4064 77.7789H91.401L91.3996 77.7776ZM91.3996 40.8353C95.6904 40.8339 99.1715 44.3144 99.1728 48.6098C99.1742 52.9051 95.6973 56.3898 91.4064 56.3911C87.1156 56.3925 83.6346 52.9119 83.6332 48.6166V48.6139C83.6359 44.3213 87.1115 40.8407 91.3996 40.8353ZM48.6729 77.7776C44.382 77.7789 40.901 74.2984 40.8996 70.003C40.8983 65.7077 44.3752 62.223 48.666 62.2217C52.9569 62.2203 56.4379 65.7009 56.4392 69.9962V69.9989C56.4338 74.2915 52.961 77.7707 48.6729 77.7776ZM91.3996 99.164C87.1088 99.164 83.6291 95.6821 83.6291 91.3854C83.6291 87.0887 87.1074 83.6067 91.3996 83.6067C95.6918 83.6067 99.1701 87.0887 99.1701 91.3854C99.1674 95.6793 95.6904 99.1599 91.3996 99.164Z" fill="#7777A8"/>
<defs>
<filter id="filter0_b_509_7535" x="-16.3164" y="-16.3164" width="172.631" height="172.631" filterUnits="userSpaceOnUse" color-interpolation-filters="sRGB">
<feFlood flood-opacity="0" result="BackgroundImageFix"/>
<feGaussianBlur in="BackgroundImage" stdDeviation="10"/>
<feComposite in2="SourceAlpha" operator="in" result="effect1_backgroundBlur_509_7535"/>
<feBlend mode="normal" in="SourceGraphic" in2="effect1_backgroundBlur_509_7535" result="shape"/>
</filter>
<filter id="filter1_b_509_7535" x="-20" y="-20" width="180" height="180" filterUnits="userSpaceOnUse" color-interpolation-filters="sRGB">
<feFlood flood-opacity="0" result="BackgroundImageFix"/>
<feGaussianBlur in="BackgroundImage" stdDeviation="10"/>
<feComposite in2="SourceAlpha" operator="in" result="effect1_backgroundBlur_509_7535"/>
<feBlend mode="normal" in="SourceGraphic" in2="effect1_backgroundBlur_509_7535" result="shape"/>
</filter>
<filter id="filter2_d_509_7535" x="1.68359" y="1.68359" width="142.631" height="142.631" filterUnits="userSpaceOnUse" color-interpolation-filters="sRGB">
<feFlood flood-opacity="0" result="BackgroundImageFix"/>
<feColorMatrix in="SourceAlpha" type="matrix" values="0 0 0 0 0 0 0 0 0 0 0 0 0 0 0 0 0 0 127 0" result="hardAlpha"/>
<feOffset dx="3" dy="3"/>
<feGaussianBlur stdDeviation="2.5"/>
<feComposite in2="hardAlpha" operator="out"/>
<feColorMatrix type="matrix" values="0 0 0 0 0.0588235 0 0 0 0 0.160784 0 0 0 0 0.419608 0 0 0 0.2 0"/>
<feBlend mode="normal" in2="BackgroundImageFix" result="effect1_dropShadow_509_7535"/>
<feBlend mode="normal" in="SourceGraphic" in2="effect1_dropShadow_509_7535" result="shape"/>
</filter>
<linearGradient id="paint0_linear_509_7535" x1="3.68359" y1="3.68359" x2="136.315" y2="136.315" gradientUnits="userSpaceOnUse">
<stop stop-color="#E8EBF2"/>
<stop offset="1" stop-color="#F2F3F7" stop-opacity="0"/>
</linearGradient>
</defs>
</svg>
