<svg width="145" height="145" viewBox="0 0 145 145" fill="none" xmlns="http://www.w3.org/2000/svg">
<g filter="url(#filter0_b_509_7509)">
<path d="M3.68359 69.9994C3.68359 33.3742 33.3742 3.68359 69.9994 3.68359C106.625 3.68359 136.315 33.3742 136.315 69.9994C136.315 106.625 106.625 136.315 69.9994 136.315C33.3742 136.315 3.68359 106.625 3.68359 69.9994Z" fill="white"/>
</g>
<g filter="url(#filter1_b_509_7509)">
<path fill-rule="evenodd" clip-rule="evenodd" d="M70 140C31.3401 140 0 108.66 0 70C0 31.3401 31.3401 0 70 0C108.66 0 140 31.3401 140 70C140 108.66 108.66 140 70 140ZM70 3.68421C33.3748 3.68421 3.68421 33.3748 3.68421 70C3.68421 106.625 33.3748 136.316 70 136.316C106.625 136.316 136.316 106.625 136.316 70C136.316 33.3748 106.625 3.68421 70 3.68421Z" fill="white"/>
</g>
<g filter="url(#filter2_d_509_7509)">
<path d="M3.68359 69.9994C3.68359 33.3742 33.3742 3.68359 69.9994 3.68359C106.625 3.68359 136.315 33.3742 136.315 69.9994C136.315 106.625 106.625 136.315 69.9994 136.315C33.3742 136.315 3.68359 106.625 3.68359 69.9994Z" fill="url(#paint0_linear_509_7509)" shape-rendering="crispEdges"/>
</g>
<path d="M64.1361 86.9172C67.373 90.1554 72.6215 90.1567 75.8597 86.9211L75.8636 86.9172L84.7362 78.0446C85.7595 76.9125 85.6714 75.1652 84.5393 74.1419C83.485 73.1886 81.8801 73.1912 80.8284 74.1458L72.7432 82.2335L72.7627 39.6046C72.7627 38.0788 71.5257 36.8418 69.9998 36.8418C68.474 36.8418 67.237 38.0788 67.237 39.6046L67.2124 82.1804L59.1713 74.1445C58.0911 73.0655 56.3412 73.0655 55.2622 74.1458C54.1832 75.226 54.1832 76.976 55.2635 78.0549L64.1361 86.9172Z" fill="#7777A8"/>
<path d="M100.396 81.0527C98.87 81.0527 97.633 82.2897 97.633 83.8156V94.8682C97.633 96.394 96.396 97.631 94.8702 97.631H45.1303C43.6044 97.631 42.3674 96.394 42.3674 94.8682V83.8156C42.3674 82.2897 41.1305 81.0527 39.6046 81.0527C38.0788 81.0527 36.8418 82.2897 36.8418 83.8156V94.8682C36.8418 99.447 40.5528 103.158 45.1316 103.158H94.8689C99.4477 103.158 103.159 99.447 103.159 94.8682V83.8156C103.159 82.2897 101.922 81.0527 100.396 81.0527Z" fill="#7777A8"/>
<defs>
<filter id="filter0_b_509_7509" x="-16.3164" y="-16.3164" width="172.631" height="172.631" filterUnits="userSpaceOnUse" color-interpolation-filters="sRGB">
<feFlood flood-opacity="0" result="BackgroundImageFix"/>
<feGaussianBlur in="BackgroundImage" stdDeviation="10"/>
<feComposite in2="SourceAlpha" operator="in" result="effect1_backgroundBlur_509_7509"/>
<feBlend mode="normal" in="SourceGraphic" in2="effect1_backgroundBlur_509_7509" result="shape"/>
</filter>
<filter id="filter1_b_509_7509" x="-20" y="-20" width="180" height="180" filterUnits="userSpaceOnUse" color-interpolation-filters="sRGB">
<feFlood flood-opacity="0" result="BackgroundImageFix"/>
<feGaussianBlur in="BackgroundImage" stdDeviation="10"/>
<feComposite in2="SourceAlpha" operator="in" result="effect1_backgroundBlur_509_7509"/>
<feBlend mode="normal" in="SourceGraphic" in2="effect1_backgroundBlur_509_7509" result="shape"/>
</filter>
<filter id="filter2_d_509_7509" x="1.68359" y="1.68359" width="142.631" height="142.631" filterUnits="userSpaceOnUse" color-interpolation-filters="sRGB">
<feFlood flood-opacity="0" result="BackgroundImageFix"/>
<feColorMatrix in="SourceAlpha" type="matrix" values="0 0 0 0 0 0 0 0 0 0 0 0 0 0 0 0 0 0 127 0" result="hardAlpha"/>
<feOffset dx="3" dy="3"/>
<feGaussianBlur stdDeviation="2.5"/>
<feComposite in2="hardAlpha" operator="out"/>
<feColorMatrix type="matrix" values="0 0 0 0 0.0588235 0 0 0 0 0.160784 0 0 0 0 0.419608 0 0 0 0.2 0"/>
<feBlend mode="normal" in2="BackgroundImageFix" result="effect1_dropShadow_509_7509"/>
<feBlend mode="normal" in="SourceGraphic" in2="effect1_dropShadow_509_7509" result="shape"/>
</filter>
<linearGradient id="paint0_linear_509_7509" x1="3.68359" y1="3.68359" x2="136.315" y2="136.315" gradientUnits="userSpaceOnUse">
<stop stop-color="#E8EBF2"/>
<stop offset="1" stop-color="#F2F3F7" stop-opacity="0"/>
</linearGradient>
</defs>
</svg>
