<svg width="145" height="145" viewBox="0 0 145 145" fill="none" xmlns="http://www.w3.org/2000/svg">
<g filter="url(#filter0_b_509_7453)">
<path d="M3.68359 69.9994C3.68359 33.3742 33.3742 3.68359 69.9994 3.68359C106.625 3.68359 136.315 33.3742 136.315 69.9994C136.315 106.625 106.625 136.315 69.9994 136.315C33.3742 136.315 3.68359 106.625 3.68359 69.9994Z" fill="white"/>
</g>
<g filter="url(#filter1_b_509_7453)">
<path fill-rule="evenodd" clip-rule="evenodd" d="M70 140C31.3401 140 0 108.66 0 70C0 31.3401 31.3401 0 70 0C108.66 0 140 31.3401 140 70C140 108.66 108.66 140 70 140ZM70 3.68421C33.3748 3.68421 3.68421 33.3748 3.68421 70C3.68421 106.625 33.3748 136.316 70 136.316C106.625 136.316 136.316 106.625 136.316 70C136.316 33.3748 106.625 3.68421 70 3.68421Z" fill="white"/>
</g>
<g filter="url(#filter2_d_509_7453)">
<path d="M3.68359 69.9994C3.68359 33.3742 33.3742 3.68359 69.9994 3.68359C106.625 3.68359 136.315 33.3742 136.315 69.9994C136.315 106.625 106.625 136.315 69.9994 136.315C33.3742 136.315 3.68359 106.625 3.68359 69.9994Z" fill="url(#paint0_linear_509_7453)" shape-rendering="crispEdges"/>
</g>
<g clip-path="url(#clip0_509_7453)">
<path d="M69.9997 36.8418C51.6877 36.8418 36.8418 51.6877 36.8418 69.9997C36.8418 88.3117 51.6877 103.158 69.9997 103.158C88.3117 103.158 103.158 88.3117 103.158 69.9997C103.138 51.6955 88.3039 36.8612 69.9997 36.8418ZM69.9997 97.6308C54.7393 97.6308 42.3685 85.2601 42.3685 69.9997C42.3685 54.7393 54.7393 42.3685 69.9997 42.3685C85.2601 42.3685 97.6308 54.7393 97.6308 69.9997C97.614 85.2536 85.2523 97.614 69.9997 97.6308Z" fill="#7777A8"/>
<path d="M70.0001 64.474H67.2373C65.7116 64.474 64.4746 65.7109 64.4746 67.2367C64.4746 68.7625 65.7116 69.9994 67.2373 69.9994H70.0001V86.5783C70.0001 88.1041 71.237 89.3411 72.7628 89.3411C74.2886 89.3411 75.5255 88.1041 75.5255 86.5783V69.9994C75.5255 66.9478 73.0516 64.4727 69.9988 64.4727L70.0001 64.474Z" fill="#7777A8"/>
<path d="M70.0002 58.9477C72.2893 58.9477 74.1449 57.092 74.1449 54.8029C74.1449 52.5139 72.2893 50.6582 70.0002 50.6582C67.7111 50.6582 65.8555 52.5139 65.8555 54.8029C65.8555 57.092 67.7111 58.9477 70.0002 58.9477Z" fill="#7777A8"/>
</g>
<defs>
<filter id="filter0_b_509_7453" x="-16.3164" y="-16.3164" width="172.631" height="172.631" filterUnits="userSpaceOnUse" color-interpolation-filters="sRGB">
<feFlood flood-opacity="0" result="BackgroundImageFix"/>
<feGaussianBlur in="BackgroundImage" stdDeviation="10"/>
<feComposite in2="SourceAlpha" operator="in" result="effect1_backgroundBlur_509_7453"/>
<feBlend mode="normal" in="SourceGraphic" in2="effect1_backgroundBlur_509_7453" result="shape"/>
</filter>
<filter id="filter1_b_509_7453" x="-20" y="-20" width="180" height="180" filterUnits="userSpaceOnUse" color-interpolation-filters="sRGB">
<feFlood flood-opacity="0" result="BackgroundImageFix"/>
<feGaussianBlur in="BackgroundImage" stdDeviation="10"/>
<feComposite in2="SourceAlpha" operator="in" result="effect1_backgroundBlur_509_7453"/>
<feBlend mode="normal" in="SourceGraphic" in2="effect1_backgroundBlur_509_7453" result="shape"/>
</filter>
<filter id="filter2_d_509_7453" x="1.68359" y="1.68359" width="142.631" height="142.631" filterUnits="userSpaceOnUse" color-interpolation-filters="sRGB">
<feFlood flood-opacity="0" result="BackgroundImageFix"/>
<feColorMatrix in="SourceAlpha" type="matrix" values="0 0 0 0 0 0 0 0 0 0 0 0 0 0 0 0 0 0 127 0" result="hardAlpha"/>
<feOffset dx="3" dy="3"/>
<feGaussianBlur stdDeviation="2.5"/>
<feComposite in2="hardAlpha" operator="out"/>
<feColorMatrix type="matrix" values="0 0 0 0 0.0588235 0 0 0 0 0.160784 0 0 0 0 0.419608 0 0 0 0.2 0"/>
<feBlend mode="normal" in2="BackgroundImageFix" result="effect1_dropShadow_509_7453"/>
<feBlend mode="normal" in="SourceGraphic" in2="effect1_dropShadow_509_7453" result="shape"/>
</filter>
<linearGradient id="paint0_linear_509_7453" x1="3.68359" y1="3.68359" x2="136.315" y2="136.315" gradientUnits="userSpaceOnUse">
<stop stop-color="#E8EBF2"/>
<stop offset="1" stop-color="#F2F3F7" stop-opacity="0"/>
</linearGradient>
<clipPath id="clip0_509_7453">
<rect width="66.3158" height="66.3158" fill="white" transform="translate(36.8418 36.8418)"/>
</clipPath>
</defs>
</svg>
