<svg width="145" height="145" viewBox="0 0 145 145" fill="none" xmlns="http://www.w3.org/2000/svg">
<g filter="url(#filter0_b_509_7491)">
<path d="M3.68359 69.9994C3.68359 33.3742 33.3742 3.68359 69.9994 3.68359C106.625 3.68359 136.315 33.3742 136.315 69.9994C136.315 106.625 106.625 136.315 69.9994 136.315C33.3742 136.315 3.68359 106.625 3.68359 69.9994Z" fill="white"/>
</g>
<g filter="url(#filter1_b_509_7491)">
<path fill-rule="evenodd" clip-rule="evenodd" d="M70 140C31.3401 140 0 108.66 0 70C0 31.3401 31.3401 0 70 0C108.66 0 140 31.3401 140 70C140 108.66 108.66 140 70 140ZM70 3.68421C33.3748 3.68421 3.68421 33.3748 3.68421 70C3.68421 106.625 33.3748 136.316 70 136.316C106.625 136.316 136.316 106.625 136.316 70C136.316 33.3748 106.625 3.68421 70 3.68421Z" fill="white"/>
</g>
<g filter="url(#filter2_d_509_7491)">
<path d="M3.68359 69.9994C3.68359 33.3742 33.3742 3.68359 69.9994 3.68359C106.625 3.68359 136.315 33.3742 136.315 69.9994C136.315 106.625 106.625 136.315 69.9994 136.315C33.3742 136.315 3.68359 106.625 3.68359 69.9994Z" fill="url(#paint0_linear_509_7491)" shape-rendering="crispEdges"/>
</g>
<path fill-rule="evenodd" clip-rule="evenodd" d="M69.9992 68.1576C77.1207 68.1576 82.8939 62.3844 82.8939 55.2628C82.8939 48.1413 77.1207 42.3681 69.9992 42.3681C62.8776 42.3681 57.1044 48.1413 57.1044 55.2628C57.1044 62.3844 62.8776 68.1576 69.9992 68.1576ZM69.9992 73.6839C80.1728 73.6839 88.4202 65.4365 88.4202 55.2628C88.4202 45.0892 80.1728 36.8418 69.9992 36.8418C59.8255 36.8418 51.5781 45.0892 51.5781 55.2628C51.5781 65.4365 59.8255 73.6839 69.9992 73.6839Z" fill="#7777A8"/>
<path fill-rule="evenodd" clip-rule="evenodd" d="M34.0781 90.2647C34.0781 83.6518 39.4389 78.291 46.0518 78.291H93.9465C100.559 78.291 105.92 83.6518 105.92 90.2647V103.159H100.394V90.2647C100.394 86.7039 97.5073 83.8173 93.9465 83.8173H46.0518C42.491 83.8173 39.6044 86.7039 39.6044 90.2647V103.159H34.0781V90.2647Z" fill="#7777A8"/>
<defs>
<filter id="filter0_b_509_7491" x="-16.3164" y="-16.3164" width="172.631" height="172.631" filterUnits="userSpaceOnUse" color-interpolation-filters="sRGB">
<feFlood flood-opacity="0" result="BackgroundImageFix"/>
<feGaussianBlur in="BackgroundImage" stdDeviation="10"/>
<feComposite in2="SourceAlpha" operator="in" result="effect1_backgroundBlur_509_7491"/>
<feBlend mode="normal" in="SourceGraphic" in2="effect1_backgroundBlur_509_7491" result="shape"/>
</filter>
<filter id="filter1_b_509_7491" x="-20" y="-20" width="180" height="180" filterUnits="userSpaceOnUse" color-interpolation-filters="sRGB">
<feFlood flood-opacity="0" result="BackgroundImageFix"/>
<feGaussianBlur in="BackgroundImage" stdDeviation="10"/>
<feComposite in2="SourceAlpha" operator="in" result="effect1_backgroundBlur_509_7491"/>
<feBlend mode="normal" in="SourceGraphic" in2="effect1_backgroundBlur_509_7491" result="shape"/>
</filter>
<filter id="filter2_d_509_7491" x="1.68359" y="1.68359" width="142.631" height="142.631" filterUnits="userSpaceOnUse" color-interpolation-filters="sRGB">
<feFlood flood-opacity="0" result="BackgroundImageFix"/>
<feColorMatrix in="SourceAlpha" type="matrix" values="0 0 0 0 0 0 0 0 0 0 0 0 0 0 0 0 0 0 127 0" result="hardAlpha"/>
<feOffset dx="3" dy="3"/>
<feGaussianBlur stdDeviation="2.5"/>
<feComposite in2="hardAlpha" operator="out"/>
<feColorMatrix type="matrix" values="0 0 0 0 0.0588235 0 0 0 0 0.160784 0 0 0 0 0.419608 0 0 0 0.2 0"/>
<feBlend mode="normal" in2="BackgroundImageFix" result="effect1_dropShadow_509_7491"/>
<feBlend mode="normal" in="SourceGraphic" in2="effect1_dropShadow_509_7491" result="shape"/>
</filter>
<linearGradient id="paint0_linear_509_7491" x1="3.68359" y1="3.68359" x2="136.315" y2="136.315" gradientUnits="userSpaceOnUse">
<stop stop-color="#E8EBF2"/>
<stop offset="1" stop-color="#F2F3F7" stop-opacity="0"/>
</linearGradient>
</defs>
</svg>
