<svg width="145" height="145" viewBox="0 0 145 145" fill="none" xmlns="http://www.w3.org/2000/svg">
<g filter="url(#filter0_b_509_7464)">
<path d="M3.68359 69.9994C3.68359 33.3742 33.3742 3.68359 69.9994 3.68359C106.625 3.68359 136.315 33.3742 136.315 69.9994C136.315 106.625 106.625 136.315 69.9994 136.315C33.3742 136.315 3.68359 106.625 3.68359 69.9994Z" fill="white"/>
</g>
<g filter="url(#filter1_b_509_7464)">
<path fill-rule="evenodd" clip-rule="evenodd" d="M70 140C31.3401 140 0 108.66 0 70C0 31.3401 31.3401 0 70 0C108.66 0 140 31.3401 140 70C140 108.66 108.66 140 70 140ZM70 3.68421C33.3748 3.68421 3.68421 33.3748 3.68421 70C3.68421 106.625 33.3748 136.316 70 136.316C106.625 136.316 136.316 106.625 136.316 70C136.316 33.3748 106.625 3.68421 70 3.68421Z" fill="white"/>
</g>
<g filter="url(#filter2_d_509_7464)">
<path d="M3.68359 69.9994C3.68359 33.3742 33.3742 3.68359 69.9994 3.68359C106.625 3.68359 136.315 33.3742 136.315 69.9994C136.315 106.625 106.625 136.315 69.9994 136.315C33.3742 136.315 3.68359 106.625 3.68359 69.9994Z" fill="url(#paint0_linear_509_7464)" shape-rendering="crispEdges"/>
</g>
<path d="M70.002 57.7266C63.2176 57.7266 57.7188 63.2269 57.7188 70.0098C57.7188 76.7927 63.2191 82.293 70.002 82.293C76.7849 82.293 82.2852 76.7927 82.2852 70.0098C82.2852 63.2269 76.7849 57.7266 70.002 57.7266ZM70.002 76.1521C66.6105 76.1521 63.8596 73.4027 63.8596 70.0098C63.8596 66.6169 66.6091 63.8675 70.002 63.8675C73.3949 63.8675 76.1443 66.6169 76.1443 70.0098C76.1443 73.4027 73.3949 76.1521 70.002 76.1521Z" fill="#7777A8"/>
<path d="M98.5413 75.8436L97.1781 75.0576C97.7913 71.718 97.7913 68.2934 97.1781 64.9538L98.5413 64.1678C102.95 61.6242 104.463 55.9872 101.92 51.5766C99.3762 47.1674 93.7391 45.6545 89.3285 48.1981L87.9624 48.9869C85.3814 46.7816 82.4146 45.0729 79.2132 43.9443V42.3695C79.2132 37.2824 75.089 33.1582 70.0004 33.1582C64.9118 33.1582 60.7876 37.2824 60.7876 42.371V43.9458C57.5862 45.0772 54.6208 46.7917 52.0413 48.9999L50.668 48.2038C46.2588 45.6602 40.6217 47.1717 38.0767 51.5823C35.5331 55.9915 37.0446 61.6286 41.4552 64.1736L42.8184 64.9595C42.2052 68.2992 42.2052 71.7237 42.8184 75.0634L41.4552 75.8493C37.046 78.3929 35.5331 84.03 38.0767 88.4406C40.6203 92.8512 46.2574 94.3627 50.668 91.8191L52.0341 91.0303C54.6165 93.2356 57.5833 94.9457 60.7862 96.0728V97.6476C60.7862 102.736 64.9104 106.86 69.999 106.86C75.0876 106.86 79.2117 102.736 79.2117 97.6476V96.0728C82.4132 94.9414 85.3785 93.2269 87.9581 91.0187L89.3314 91.8105C93.7406 94.3541 99.3776 92.8426 101.923 88.432C104.466 84.0228 102.955 78.3857 98.5442 75.8407L98.5413 75.8436ZM90.7162 64.2484C91.7555 68.017 91.7555 71.9958 90.7162 75.7644C90.3434 77.1132 90.9292 78.5441 92.1413 79.2437L95.4708 81.1654C96.9406 82.0133 97.4444 83.8918 96.5965 85.3615C95.7487 86.8312 93.8701 87.3351 92.4004 86.4872L89.0651 84.5583C87.8516 83.8558 86.3157 84.0645 85.3339 85.065C82.6003 87.8547 79.157 89.847 75.3755 90.823C74.018 91.1728 73.068 92.3963 73.0694 93.7984V97.6462C73.0694 99.3419 71.6947 100.717 69.999 100.717C68.3032 100.717 66.9285 99.3419 66.9285 97.6462V93.8013C66.9285 92.3992 65.9799 91.1742 64.6225 90.8258C60.8395 89.8455 57.3976 87.8504 54.6669 85.0549C53.6852 84.0545 52.1492 83.8457 50.9357 84.5482L47.6062 86.4743C46.1436 87.3322 44.2622 86.8413 43.4043 85.3774C42.5463 83.9148 43.0372 82.0334 44.5012 81.1755C44.5127 81.1683 44.5242 81.1625 44.5357 81.1553L47.8653 79.2336C49.0773 78.534 49.6632 77.1031 49.2904 75.7543C48.2511 71.9857 48.2511 68.007 49.2904 64.2384C49.6575 62.8924 49.0701 61.4688 47.8624 60.7706L44.5329 58.8489C43.0631 58.001 42.5593 56.1225 43.4072 54.6528C44.255 53.183 46.1336 52.6792 47.6033 53.5271L50.9386 55.456C52.1492 56.1599 53.6823 55.9569 54.6669 54.9622C57.4005 52.1725 60.8438 50.1802 64.6253 49.2043C65.9871 48.8545 66.9386 47.6223 66.9314 46.2159V42.371C66.9314 40.6753 68.3061 39.3005 70.0019 39.3005C71.6976 39.3005 73.0723 40.6753 73.0723 42.371V46.2159C73.0723 47.6179 74.0209 48.8429 75.3784 49.1913C79.1614 50.1716 82.6061 52.1667 85.3368 54.9622C86.3185 55.9627 87.8545 56.1714 89.068 55.469L92.3975 53.5429C93.8601 52.685 95.7415 53.1758 96.5994 54.6384C97.4574 56.1009 96.9665 57.9823 95.504 58.8402C95.4924 58.8474 95.4809 58.8532 95.468 58.8604L92.1384 60.7821C90.9321 61.4817 90.3491 62.9054 90.7162 64.2499V64.247V64.2484Z" fill="#7777A8"/>
<defs>
<filter id="filter0_b_509_7464" x="-16.3164" y="-16.3164" width="172.631" height="172.631" filterUnits="userSpaceOnUse" color-interpolation-filters="sRGB">
<feFlood flood-opacity="0" result="BackgroundImageFix"/>
<feGaussianBlur in="BackgroundImage" stdDeviation="10"/>
<feComposite in2="SourceAlpha" operator="in" result="effect1_backgroundBlur_509_7464"/>
<feBlend mode="normal" in="SourceGraphic" in2="effect1_backgroundBlur_509_7464" result="shape"/>
</filter>
<filter id="filter1_b_509_7464" x="-20" y="-20" width="180" height="180" filterUnits="userSpaceOnUse" color-interpolation-filters="sRGB">
<feFlood flood-opacity="0" result="BackgroundImageFix"/>
<feGaussianBlur in="BackgroundImage" stdDeviation="10"/>
<feComposite in2="SourceAlpha" operator="in" result="effect1_backgroundBlur_509_7464"/>
<feBlend mode="normal" in="SourceGraphic" in2="effect1_backgroundBlur_509_7464" result="shape"/>
</filter>
<filter id="filter2_d_509_7464" x="1.68359" y="1.68359" width="142.631" height="142.631" filterUnits="userSpaceOnUse" color-interpolation-filters="sRGB">
<feFlood flood-opacity="0" result="BackgroundImageFix"/>
<feColorMatrix in="SourceAlpha" type="matrix" values="0 0 0 0 0 0 0 0 0 0 0 0 0 0 0 0 0 0 127 0" result="hardAlpha"/>
<feOffset dx="3" dy="3"/>
<feGaussianBlur stdDeviation="2.5"/>
<feComposite in2="hardAlpha" operator="out"/>
<feColorMatrix type="matrix" values="0 0 0 0 0.0588235 0 0 0 0 0.160784 0 0 0 0 0.419608 0 0 0 0.2 0"/>
<feBlend mode="normal" in2="BackgroundImageFix" result="effect1_dropShadow_509_7464"/>
<feBlend mode="normal" in="SourceGraphic" in2="effect1_dropShadow_509_7464" result="shape"/>
</filter>
<linearGradient id="paint0_linear_509_7464" x1="3.68359" y1="3.68359" x2="136.315" y2="136.315" gradientUnits="userSpaceOnUse">
<stop stop-color="#E8EBF2"/>
<stop offset="1" stop-color="#F2F3F7" stop-opacity="0"/>
</linearGradient>
</defs>
</svg>
