<svg width="145" height="145" viewBox="0 0 145 145" fill="none" xmlns="http://www.w3.org/2000/svg">
<g filter="url(#filter0_b_509_7480)">
<path d="M3.68359 69.9994C3.68359 33.3742 33.3742 3.68359 69.9994 3.68359C106.625 3.68359 136.315 33.3742 136.315 69.9994C136.315 106.625 106.625 136.315 69.9994 136.315C33.3742 136.315 3.68359 106.625 3.68359 69.9994Z" fill="white"/>
</g>
<g filter="url(#filter1_b_509_7480)">
<path fill-rule="evenodd" clip-rule="evenodd" d="M70 140C31.3401 140 0 108.66 0 70C0 31.3401 31.3401 0 70 0C108.66 0 140 31.3401 140 70C140 108.66 108.66 140 70 140ZM70 3.68421C33.3748 3.68421 3.68421 33.3748 3.68421 70C3.68421 106.625 33.3748 136.316 70 136.316C106.625 136.316 136.316 106.625 136.316 70C136.316 33.3748 106.625 3.68421 70 3.68421Z" fill="white"/>
</g>
<g filter="url(#filter2_d_509_7480)">
<path d="M3.68359 69.9994C3.68359 33.3742 33.3742 3.68359 69.9994 3.68359C106.625 3.68359 136.315 33.3742 136.315 69.9994C136.315 106.625 106.625 136.315 69.9994 136.315C33.3742 136.315 3.68359 106.625 3.68359 69.9994Z" fill="url(#paint0_linear_509_7480)" shape-rendering="crispEdges"/>
</g>
<path d="M89.3415 42.3685H86.5788V39.6045C86.5788 38.0787 85.3419 36.8418 83.8161 36.8418C82.2903 36.8418 81.0533 38.0787 81.0533 39.6045V42.3672H58.9476V39.6045C58.9476 38.0787 57.7106 36.8418 56.1848 36.8418C54.659 36.8418 53.4221 38.0787 53.4221 39.6045V42.3672H50.6594C43.0317 42.3776 36.8509 48.5572 36.8418 56.1835V89.3414C36.8509 96.9677 43.0317 103.149 50.6581 103.158H89.3415C96.9679 103.149 103.149 96.9677 103.158 89.3414V56.1835C103.149 48.5572 96.9679 42.3763 89.3415 42.3672V42.3685ZM42.3686 56.1835C42.3686 51.6048 46.0794 47.894 50.6581 47.894H89.3415C93.9202 47.894 97.6311 51.6048 97.6311 56.1835V58.9462H42.3686V56.1835ZM89.3415 97.6308H50.6581C46.0794 97.6308 42.3686 93.92 42.3686 89.3414V64.4729H97.6311V89.3414C97.6311 93.92 93.9202 97.6308 89.3415 97.6308Z" fill="#7777A8"/>
<path d="M70.0003 82.434C72.2894 82.434 74.1451 80.5784 74.1451 78.2893C74.1451 76.0002 72.2894 74.1445 70.0003 74.1445C67.7112 74.1445 65.8555 76.0002 65.8555 78.2893C65.8555 80.5784 67.7112 82.434 70.0003 82.434Z" fill="#7777A8"/>
<path d="M56.1838 82.434C58.4728 82.434 60.3285 80.5784 60.3285 78.2893C60.3285 76.0002 58.4728 74.1445 56.1838 74.1445C53.8947 74.1445 52.0391 76.0002 52.0391 78.2893C52.0391 80.5784 53.8947 82.434 56.1838 82.434Z" fill="#7777A8"/>
<path d="M83.8166 82.434C86.1056 82.434 87.9613 80.5784 87.9613 78.2893C87.9613 76.0002 86.1056 74.1445 83.8166 74.1445C81.5275 74.1445 79.6719 76.0002 79.6719 78.2893C79.6719 80.5784 81.5275 82.434 83.8166 82.434Z" fill="#7777A8"/>
<defs>
<filter id="filter0_b_509_7480" x="-16.3164" y="-16.3164" width="172.631" height="172.631" filterUnits="userSpaceOnUse" color-interpolation-filters="sRGB">
<feFlood flood-opacity="0" result="BackgroundImageFix"/>
<feGaussianBlur in="BackgroundImage" stdDeviation="10"/>
<feComposite in2="SourceAlpha" operator="in" result="effect1_backgroundBlur_509_7480"/>
<feBlend mode="normal" in="SourceGraphic" in2="effect1_backgroundBlur_509_7480" result="shape"/>
</filter>
<filter id="filter1_b_509_7480" x="-20" y="-20" width="180" height="180" filterUnits="userSpaceOnUse" color-interpolation-filters="sRGB">
<feFlood flood-opacity="0" result="BackgroundImageFix"/>
<feGaussianBlur in="BackgroundImage" stdDeviation="10"/>
<feComposite in2="SourceAlpha" operator="in" result="effect1_backgroundBlur_509_7480"/>
<feBlend mode="normal" in="SourceGraphic" in2="effect1_backgroundBlur_509_7480" result="shape"/>
</filter>
<filter id="filter2_d_509_7480" x="1.68359" y="1.68359" width="142.631" height="142.631" filterUnits="userSpaceOnUse" color-interpolation-filters="sRGB">
<feFlood flood-opacity="0" result="BackgroundImageFix"/>
<feColorMatrix in="SourceAlpha" type="matrix" values="0 0 0 0 0 0 0 0 0 0 0 0 0 0 0 0 0 0 127 0" result="hardAlpha"/>
<feOffset dx="3" dy="3"/>
<feGaussianBlur stdDeviation="2.5"/>
<feComposite in2="hardAlpha" operator="out"/>
<feColorMatrix type="matrix" values="0 0 0 0 0.0588235 0 0 0 0 0.160784 0 0 0 0 0.419608 0 0 0 0.2 0"/>
<feBlend mode="normal" in2="BackgroundImageFix" result="effect1_dropShadow_509_7480"/>
<feBlend mode="normal" in="SourceGraphic" in2="effect1_dropShadow_509_7480" result="shape"/>
</filter>
<linearGradient id="paint0_linear_509_7480" x1="3.68359" y1="3.68359" x2="136.315" y2="136.315" gradientUnits="userSpaceOnUse">
<stop stop-color="#E8EBF2"/>
<stop offset="1" stop-color="#F2F3F7" stop-opacity="0"/>
</linearGradient>
</defs>
</svg>
