<svg width="145" height="145" viewBox="0 0 145 145" fill="none" xmlns="http://www.w3.org/2000/svg">
<g filter="url(#filter0_b_509_7437)">
<path d="M3.68359 69.9994C3.68359 33.3742 33.3742 3.68359 69.9994 3.68359C106.625 3.68359 136.315 33.3742 136.315 69.9994C136.315 106.625 106.625 136.315 69.9994 136.315C33.3742 136.315 3.68359 106.625 3.68359 69.9994Z" fill="white"/>
</g>
<g filter="url(#filter1_b_509_7437)">
<path fill-rule="evenodd" clip-rule="evenodd" d="M70 140C31.3401 140 0 108.66 0 70C0 31.3401 31.3401 0 70 0C108.66 0 140 31.3401 140 70C140 108.66 108.66 140 70 140ZM70 3.68421C33.3748 3.68421 3.68421 33.3748 3.68421 70C3.68421 106.625 33.3748 136.316 70 136.316C106.625 136.316 136.316 106.625 136.316 70C136.316 33.3748 106.625 3.68421 70 3.68421Z" fill="white"/>
</g>
<g filter="url(#filter2_d_509_7437)">
<path d="M3.68359 69.9994C3.68359 33.3742 33.3742 3.68359 69.9994 3.68359C106.625 3.68359 136.315 33.3742 136.315 69.9994C136.315 106.625 106.625 136.315 69.9994 136.315C33.3742 136.315 3.68359 106.625 3.68359 69.9994Z" fill="url(#paint0_linear_509_7437)" shape-rendering="crispEdges"/>
</g>
<path fill-rule="evenodd" clip-rule="evenodd" d="M93.4982 46.5259C87.2616 40.2842 78.9713 36.8444 70.1396 36.8418C51.94 36.8418 37.1281 51.6511 37.119 69.8598C37.1164 75.6786 38.6378 81.3595 41.5284 86.3688L36.8418 103.476L54.3451 98.8836C59.1683 101.515 64.598 102.901 70.124 102.904H70.1383C88.3353 102.904 103.15 88.0919 103.159 69.8832C103.164 61.0619 99.7322 52.7638 93.4995 46.5246L93.4982 46.5259ZM70.1396 97.3271H70.1279C65.2019 97.3271 60.3748 96.0022 56.1594 93.5008L55.1572 92.906L44.7703 95.63L47.5437 85.502L46.8917 84.4634C44.143 80.0932 42.6932 75.0435 42.6971 69.8598C42.7023 54.7277 55.0167 42.4172 70.1539 42.4172C77.4838 42.4172 84.375 45.2765 89.5561 50.4629C94.7372 55.6518 97.5887 62.5456 97.5861 69.878C97.5783 85.0153 85.2665 97.3258 70.1409 97.3258L70.1396 97.3271ZM85.1936 76.7731C84.3685 76.3593 80.3131 74.3628 79.5544 74.0882C78.7995 73.8136 78.249 73.6744 77.6972 74.4995C77.1454 75.3246 75.568 77.1844 75.0852 77.7362C74.6049 78.2854 74.1221 78.3557 73.297 77.9418C72.4718 77.528 69.813 76.6586 66.6608 73.8461C64.2089 71.6584 62.5521 68.9566 62.0719 68.1288C61.5916 67.3011 62.0224 66.8573 62.4324 66.4461C62.8046 66.0764 63.2575 65.483 63.6701 65.0001C64.0865 64.5225 64.2232 64.1789 64.5004 63.6258C64.775 63.0766 64.6397 62.5924 64.4314 62.1799C64.2232 61.7686 62.5742 57.7068 61.8884 56.0552C61.2194 54.4453 60.5388 54.664 60.0312 54.6392C59.551 54.6145 59.0017 54.6119 58.4486 54.6119C57.8955 54.6119 57.0053 54.8175 56.2492 55.6453C55.4943 56.473 53.3612 58.4694 53.3612 62.5287C53.3612 66.5879 56.3181 70.5131 56.7294 71.0636C57.1407 71.6142 62.5456 79.9487 70.8229 83.5212C72.792 84.371 74.329 84.8786 75.5264 85.2586C77.5033 85.8859 79.3019 85.7974 80.7244 85.5866C82.3096 85.351 85.6049 83.5902 86.2933 81.664C86.9818 79.7379 86.9818 78.0824 86.7736 77.7414C86.5679 77.3939 86.0187 77.1883 85.1936 76.7757V76.7731Z" fill="#7777A8"/>
<defs>
<filter id="filter0_b_509_7437" x="-16.3164" y="-16.3164" width="172.631" height="172.631" filterUnits="userSpaceOnUse" color-interpolation-filters="sRGB">
<feFlood flood-opacity="0" result="BackgroundImageFix"/>
<feGaussianBlur in="BackgroundImage" stdDeviation="10"/>
<feComposite in2="SourceAlpha" operator="in" result="effect1_backgroundBlur_509_7437"/>
<feBlend mode="normal" in="SourceGraphic" in2="effect1_backgroundBlur_509_7437" result="shape"/>
</filter>
<filter id="filter1_b_509_7437" x="-20" y="-20" width="180" height="180" filterUnits="userSpaceOnUse" color-interpolation-filters="sRGB">
<feFlood flood-opacity="0" result="BackgroundImageFix"/>
<feGaussianBlur in="BackgroundImage" stdDeviation="10"/>
<feComposite in2="SourceAlpha" operator="in" result="effect1_backgroundBlur_509_7437"/>
<feBlend mode="normal" in="SourceGraphic" in2="effect1_backgroundBlur_509_7437" result="shape"/>
</filter>
<filter id="filter2_d_509_7437" x="1.68359" y="1.68359" width="142.631" height="142.631" filterUnits="userSpaceOnUse" color-interpolation-filters="sRGB">
<feFlood flood-opacity="0" result="BackgroundImageFix"/>
<feColorMatrix in="SourceAlpha" type="matrix" values="0 0 0 0 0 0 0 0 0 0 0 0 0 0 0 0 0 0 127 0" result="hardAlpha"/>
<feOffset dx="3" dy="3"/>
<feGaussianBlur stdDeviation="2.5"/>
<feComposite in2="hardAlpha" operator="out"/>
<feColorMatrix type="matrix" values="0 0 0 0 0.0588235 0 0 0 0 0.160784 0 0 0 0 0.419608 0 0 0 0.2 0"/>
<feBlend mode="normal" in2="BackgroundImageFix" result="effect1_dropShadow_509_7437"/>
<feBlend mode="normal" in="SourceGraphic" in2="effect1_dropShadow_509_7437" result="shape"/>
</filter>
<linearGradient id="paint0_linear_509_7437" x1="3.68359" y1="3.68359" x2="136.315" y2="136.315" gradientUnits="userSpaceOnUse">
<stop stop-color="#E8EBF2"/>
<stop offset="1" stop-color="#F2F3F7" stop-opacity="0"/>
</linearGradient>
</defs>
</svg>
