<svg width="180" height="180" viewBox="0 0 180 180" fill="none" xmlns="http://www.w3.org/2000/svg">
<path fill-rule="evenodd" clip-rule="evenodd" d="M90 180C139.706 180 180 139.706 180 90C180 40.2944 139.706 0 90 0C40.2944 0 0 40.2944 0 90C0 139.706 40.2944 180 90 180ZM92.3796 178.568C140.244 178.568 179.046 139.766 179.046 91.901C179.046 44.0364 140.244 5.23438 92.3796 5.23438C44.5149 5.23438 5.71289 44.0364 5.71289 91.901C5.71289 139.766 44.5149 178.568 92.3796 178.568Z" fill="#7777A8"/>
<path fill-rule="evenodd" clip-rule="evenodd" d="M60.057 90.3298C63.5185 87.4452 71.8757 79.8958 70.6889 73.7639C70.1148 70.798 67.5787 68.7577 65.0001 66.6831C60.9146 63.3962 56.7222 60.0233 60.057 52.7474C65.4965 40.8793 78.2683 30.9068 86.4767 27.6371C95.1668 24.1756 110.707 20.2195 119.361 23.4338C122.518 24.6064 125.384 24.8102 128.111 25.0041C132.859 25.3417 137.186 25.6493 141.898 30.9891L142.326 31.4742C149.671 39.7873 158.717 50.0253 160.9 82.28C160.9 92.4751 160.233 96.9996 159.673 100.793C159.269 103.532 158.922 105.89 158.922 109.725C158.922 117.541 158.922 122.635 170.224 114.79C171.02 114.115 171.842 113.418 172.69 112.698C160.603 157.808 114.235 184.579 69.1252 172.492L68.2484 172.22C61.7801 170.216 59.1437 169.399 59.1988 169.126C59.2367 168.939 60.5486 169.01 62.763 169.129H62.763H62.7633C65.4053 169.271 69.3319 169.482 73.9124 169.406C74.1954 169.374 74.5094 169.343 74.8558 169.313C87.156 168.237 89.282 162.665 91.2571 157.489C91.5511 156.718 91.8417 155.956 92.1621 155.22C96.8599 140.632 96.3206 127.665 95.1668 119.506C93.8496 119.901 92.2266 120.433 90.4542 121.013L90.4541 121.013C84.4634 122.976 76.7666 125.498 73.4085 125.192C70.3726 124.916 70.5715 122.946 70.8242 120.442C71.0242 118.459 71.2581 116.142 69.947 114.066C67.5571 110.282 67.8943 109.546 68.3744 108.498C68.4903 108.245 68.6145 107.974 68.7107 107.638C69.0146 106.574 68.3848 105.884 67.6246 105.051C67.1477 104.528 66.6194 103.949 66.2382 103.187C65.7098 102.13 66.5223 100.438 67.2052 99.0162C67.8006 97.7764 68.2975 96.7415 67.7217 96.5111C67.5257 96.4327 67.2302 96.3232 66.8668 96.1886C64.9384 95.474 61.0971 94.0506 60.057 92.8023C59.0681 91.6155 59.6449 90.6595 60.057 90.3298ZM108.973 75.1617C111.693 72.1946 116.31 70.4639 117.627 76.3312C119.882 86.3784 112.187 97.4144 109.467 97.9089C107.369 98.2904 107.499 97.0533 107.668 95.4462C107.718 94.97 107.772 94.4615 107.772 93.9529C107.772 93.4004 107.996 93.6842 108.383 94.1751C109.077 95.0553 110.296 96.6017 111.693 95.1891C113.66 93.1996 115.473 86.9056 115.684 83.3825C115.896 79.8595 115.401 69.7969 108.725 76.8924C106.34 79.4277 106.447 84.0931 106.516 87.0968C106.526 87.549 106.536 87.9636 106.536 88.3276C105.877 85.5254 104.72 76.5957 105.511 73.4309C106.054 71.2575 106.011 72.237 105.944 73.766C105.889 75.0202 105.818 76.6442 106.041 77.2012C106.452 78.2281 106.675 77.9378 107.158 77.3101C107.256 77.1821 107.365 77.0401 107.489 76.8924C107.687 76.6458 108.264 75.9349 108.973 75.1617ZM73.1349 38.8219C80.0468 33.1236 86.297 29.9159 91.4205 30.4038C93.9548 30.6452 91.9535 31.3578 89.3554 32.2829C86.6305 33.2531 83.2494 34.457 83.7556 35.5961C84.4908 37.2503 91.0267 34.5264 95.6071 32.6175L95.6072 32.6175C97.1884 31.9585 98.5366 31.3966 99.3326 31.1456C103.289 29.8979 101.311 32.1346 96.6128 35.1016C95.487 35.8127 110.953 28.4258 101.311 30.4038C97.2954 31.2275 93.4315 32.408 90.9831 33.1561C87.917 34.093 87.0705 34.3516 90.926 32.3819C93.417 31.1092 99.0874 27.4797 94.3875 27.6841C88.7007 27.9313 79.5523 32.1346 73.1349 38.8219ZM135.443 30.9098C131.703 27.17 127.521 27.8495 121.853 28.7705L121.852 28.7705C121.525 28.8237 121.192 28.8778 120.855 28.9318C127.53 28.6846 129.006 28.9761 132.464 32.1461C133.53 33.1231 134.948 33.5258 136.443 33.9501C139.109 34.7072 142.018 35.5331 143.602 39.8109C142.162 35.4908 140.825 34.6912 138.989 33.5927C137.988 32.9937 136.839 32.3058 135.443 30.9098ZM111.706 31.6516C117.393 31.734 127.032 41.2944 129.509 56.8714C132.527 75.8564 130.662 97.9077 129.509 105.569C136.915 78.1236 138.162 29.9208 111.706 31.6516ZM80.0427 64.5566C80.5244 67.5501 81.0636 70.9006 87.4756 72.4483C88.4837 72.6916 89.2365 72.882 89.7841 73.0205C90.6757 73.2459 91.0228 73.3337 91.0412 73.2883C91.0529 73.2594 90.9311 73.1763 90.7315 73.0402L90.7313 73.0401L90.7313 73.0401C90.0685 72.5883 88.5493 71.5528 88.2173 69.9758C87.2659 65.4565 84.9415 63.9118 82.1247 62.04C82.0135 61.966 81.9015 61.8916 81.7887 61.8164C78.8217 59.8384 77.6004 51.9148 77.8216 48.4533C77.9323 46.7216 76.3354 57.5953 78.8217 60.8274C79.6069 61.8481 79.8186 63.1637 80.0427 64.5566ZM65.4589 50.4313C60.7612 57.8604 59.7721 61.5577 66.6951 65.5137C67.6782 66.0755 68.3933 66.5007 68.8908 66.7966L68.8909 66.7967L68.8911 66.7968L68.8912 66.7969C69.5324 67.1781 69.8121 67.3445 69.8383 67.3111C69.8587 67.2853 69.7271 67.1398 69.4938 66.8818L69.4938 66.8818C68.0271 65.26 62.5389 59.1912 65.4589 50.4313ZM69.1677 105.569C70.8161 106.228 73.9041 106.698 79.5523 105.569C85.7336 104.332 69.1677 111.008 69.1677 105.569ZM141.416 110.619C140.076 123.149 138.019 142.372 129.509 151.805C119.905 162.45 131.228 158.234 140.624 151.805C146.691 147.654 157.437 137.217 162.135 127.821C163.611 124.869 163.031 125.244 160.543 126.854C159.083 127.799 156.966 129.169 154.223 130.541C150.544 132.381 150.578 130.753 150.67 126.293C150.764 121.759 150.919 114.3 147.3 104.58C143.231 93.6538 142.606 99.5026 141.416 110.619ZM87.4645 170.102C98.3436 168.321 103.783 137.476 92.1734 71.7065C98.605 102.346 100.09 124.482 101.047 138.761C101.967 152.478 102.401 158.947 106.267 158.74C112.396 158.411 111.277 159.437 109.917 160.683C108.206 162.251 106.115 164.168 117.629 164.168C123.327 164.168 107.256 170.102 87.4645 170.102ZM73.6183 67.9863C69.6622 66.6017 68.9316 60.1681 68.9316 56.8714C69.6734 62.0637 71.5252 64.5247 75.3491 67.739C76.3921 68.6158 77.1053 69.1615 77.4906 69.4562L77.4907 69.4563C77.7246 69.6352 77.8376 69.7217 77.8302 69.7337C77.8233 69.7449 77.711 69.6909 77.4939 69.5865L77.4938 69.5865C76.9235 69.3123 75.6294 68.6902 73.6183 67.9863Z" fill="#7777A8"/>
<path fill-rule="evenodd" clip-rule="evenodd" d="M153.878 34.5024C138.905 20.1941 118.611 11.4062 96.2656 11.4062C50.2027 11.4062 12.8613 48.7476 12.8613 94.8105C12.8613 117.156 21.6492 137.45 35.9575 152.423C20.0654 137.237 10.166 115.832 10.166 92.1152C10.166 46.0523 47.5074 8.71094 93.5703 8.71094C117.287 8.71094 138.692 18.6103 153.878 34.5024Z" fill="#7777A8"/>
</svg>
