<svg width="145" height="145" viewBox="0 0 145 145" fill="none" xmlns="http://www.w3.org/2000/svg">
<g filter="url(#filter0_b_592_111)">
<path d="M3.68359 69.9994C3.68359 33.3742 33.3742 3.68359 69.9994 3.68359C106.625 3.68359 136.315 33.3742 136.315 69.9994C136.315 106.625 106.625 136.315 69.9994 136.315C33.3742 136.315 3.68359 106.625 3.68359 69.9994Z" fill="white"/>
</g>
<g filter="url(#filter1_b_592_111)">
<path fill-rule="evenodd" clip-rule="evenodd" d="M70 140C31.3401 140 0 108.66 0 70C0 31.3401 31.3401 0 70 0C108.66 0 140 31.3401 140 70C140 108.66 108.66 140 70 140ZM70 3.68421C33.3748 3.68421 3.68421 33.3748 3.68421 70C3.68421 106.625 33.3748 136.316 70 136.316C106.625 136.316 136.316 106.625 136.316 70C136.316 33.3748 106.625 3.68421 70 3.68421Z" fill="white"/>
</g>
<g filter="url(#filter2_d_592_111)">
<path d="M3.68359 69.9994C3.68359 33.3742 33.3742 3.68359 69.9994 3.68359C106.625 3.68359 136.315 33.3742 136.315 69.9994C136.315 106.625 106.625 136.315 69.9994 136.315C33.3742 136.315 3.68359 106.625 3.68359 69.9994Z" fill="url(#paint0_linear_592_111)" shape-rendering="crispEdges"/>
</g>
<path d="M94.8679 85.0561C92.7241 85.059 90.6658 85.9724 89.1282 87.6027L80.9482 83.1359C81.0039 82.774 81.0375 82.4077 81.0505 82.0415C81.0375 81.6739 81.0039 81.3091 80.9482 80.9471L89.1282 76.4803C92.4275 79.9304 97.6659 79.8074 100.827 76.2046C103.987 72.6032 103.874 66.885 100.574 63.4349C97.2734 59.9848 92.0363 60.1078 88.8757 63.7106C87.3964 65.3961 86.5725 67.6415 86.5764 69.976C86.5894 70.3436 86.6231 70.7084 86.6788 71.0704L78.4987 75.5372C75.2085 72.0616 69.9597 72.1563 66.7758 75.7479C63.5918 79.3394 63.6786 85.0689 66.9688 88.5444C70.1825 91.9394 75.2836 91.9394 78.4987 88.5444L86.6788 93.0112C86.6231 93.3732 86.5894 93.7394 86.5764 94.1056C86.5764 99.1041 90.2876 103.155 94.8666 103.155C99.4457 103.155 103.157 99.1041 103.157 94.1056C103.157 89.1072 99.4457 85.0561 94.8666 85.0561H94.8679ZM94.8679 66.9571C96.3938 66.9571 97.6309 68.3075 97.6309 69.9732C97.6309 71.6388 96.3938 72.9892 94.8679 72.9892C93.342 72.9892 92.105 71.6388 92.105 69.9732C92.105 68.3075 93.342 66.9571 94.8679 66.9571ZM72.7603 85.0561C71.2344 85.0561 69.9973 83.7058 69.9973 82.0401C69.9973 80.3744 71.2344 79.0241 72.7603 79.0241C74.2862 79.0241 75.5232 80.3744 75.5232 82.0401C75.5232 83.7058 74.2862 85.0561 72.7603 85.0561ZM94.8679 97.1217C93.342 97.1217 92.105 95.7713 92.105 94.1056C92.105 92.44 93.342 91.0896 94.8679 91.0896C96.3938 91.0896 97.6309 92.44 97.6309 94.1056C97.6309 95.7713 96.3938 97.1217 94.8679 97.1217Z" fill="#7777A8"/>
<path d="M81.0506 97.1241H52.0349C46.7071 97.1411 42.3755 92.441 42.3587 86.6253C42.3457 81.7993 45.3405 77.58 49.6242 76.3894L53.5984 75.271L51.1553 71.6752C49.0323 68.5715 47.8859 64.8004 47.8885 60.9275C47.9571 50.932 55.4364 42.8907 64.5932 42.9656C72.8005 43.0335 79.7267 49.6453 80.8835 58.5152L81.1594 60.7352L85.9897 55.4624C83.1996 42.4863 71.3005 34.4393 59.4144 37.4865C49.4416 40.0444 42.3859 49.7443 42.3625 60.9261C42.3599 64.782 43.2136 68.5814 44.8496 71.999C37.4648 76.3201 34.6863 86.358 38.6436 94.4191C41.2887 99.8064 46.4364 103.166 52.0349 103.158H81.0506C81.9483 103.152 82.8459 103.087 83.7371 102.961C82.5571 101.229 81.7345 99.2366 81.3278 97.1241H81.0519H81.0506Z" fill="#7777A8"/>
<defs>
<filter id="filter0_b_592_111" x="-16.3164" y="-16.3164" width="172.631" height="172.631" filterUnits="userSpaceOnUse" color-interpolation-filters="sRGB">
<feFlood flood-opacity="0" result="BackgroundImageFix"/>
<feGaussianBlur in="BackgroundImage" stdDeviation="10"/>
<feComposite in2="SourceAlpha" operator="in" result="effect1_backgroundBlur_592_111"/>
<feBlend mode="normal" in="SourceGraphic" in2="effect1_backgroundBlur_592_111" result="shape"/>
</filter>
<filter id="filter1_b_592_111" x="-20" y="-20" width="180" height="180" filterUnits="userSpaceOnUse" color-interpolation-filters="sRGB">
<feFlood flood-opacity="0" result="BackgroundImageFix"/>
<feGaussianBlur in="BackgroundImage" stdDeviation="10"/>
<feComposite in2="SourceAlpha" operator="in" result="effect1_backgroundBlur_592_111"/>
<feBlend mode="normal" in="SourceGraphic" in2="effect1_backgroundBlur_592_111" result="shape"/>
</filter>
<filter id="filter2_d_592_111" x="1.68359" y="1.68359" width="142.631" height="142.631" filterUnits="userSpaceOnUse" color-interpolation-filters="sRGB">
<feFlood flood-opacity="0" result="BackgroundImageFix"/>
<feColorMatrix in="SourceAlpha" type="matrix" values="0 0 0 0 0 0 0 0 0 0 0 0 0 0 0 0 0 0 127 0" result="hardAlpha"/>
<feOffset dx="3" dy="3"/>
<feGaussianBlur stdDeviation="2.5"/>
<feComposite in2="hardAlpha" operator="out"/>
<feColorMatrix type="matrix" values="0 0 0 0 0.0588235 0 0 0 0 0.160784 0 0 0 0 0.419608 0 0 0 0.2 0"/>
<feBlend mode="normal" in2="BackgroundImageFix" result="effect1_dropShadow_592_111"/>
<feBlend mode="normal" in="SourceGraphic" in2="effect1_dropShadow_592_111" result="shape"/>
</filter>
<linearGradient id="paint0_linear_592_111" x1="3.68359" y1="3.68359" x2="136.315" y2="136.315" gradientUnits="userSpaceOnUse">
<stop stop-color="#E8EBF2"/>
<stop offset="1" stop-color="#F2F3F7" stop-opacity="0"/>
</linearGradient>
</defs>
</svg>
