<svg width="38" height="87" viewBox="0 0 38 87" fill="none" xmlns="http://www.w3.org/2000/svg">
<path fill-rule="evenodd" clip-rule="evenodd" d="M36 41V25H20H18H2V41C2 50.3888 9.61116 58 19 58C28.3888 58 36 50.3888 36 41ZM20 23H36V19C36 9.94685 28.9234 2.54654 20 2.02892V23ZM18 2.02892V23H2V19C2 9.94685 9.07662 2.54654 18 2.02892ZM38 25V23V19C38 8.50659 29.4934 0 19 0C8.50659 0 0 8.50659 0 19V23V25V41C0 51.4934 8.50659 60 19 60C29.4934 60 38 51.4934 38 41V25Z" fill="#7777A8"/>
<path d="M14 76L18.6464 71.3536C18.8417 71.1583 19.1583 71.1583 19.3536 71.3536L24 76" stroke="#7777A8" stroke-width="2" stroke-linecap="round"/>
<path d="M14 86L18.6464 81.3536C18.8417 81.1583 19.1583 81.1583 19.3536 81.3536L24 86" stroke="#7777A8" stroke-width="2" stroke-linecap="round"/>
</svg>
